# xmcd
#
# Track frame offsets: 
#        150
#        9275
#        20902
#        33212
#        45972
#        59692
#        69670
#        79050
#        92627
#        109467
#        125105
#        138075
#
# Disc length: 1985 seconds
#
# Revision: 12
# Processed by: cddbd v1.5.2PL0 Copyright (c) Steve Scherf et al.
# Submitted via: ExactAudioCopyFreeDBPlugin 1.0
#
DISCID=9f07bf0c
DTITLE=Patsy Cline - 12 Greatest Hits
DYEAR=1988
DGENRE=Country
TTITLE0=Walkin' After Midnight
TTITLE1=Sweet Dreams (Of You)
TTITLE2=Crazy
TTITLE3=I Fall To Pieces
TTITLE4=So Wrong
TTITLE5=Strange
TTITLE6=Back In Baby's Arms
TTITLE7=She's Got You
TTITLE8=Faded Love
TTITLE9=Why Can't He Be You
TTITLE10=You're Stronger Than Me
TTITLE11=Leavin' On Your Mind
EXTD=
EXTT0=
EXTT1=
EXTT2=
EXTT3=
EXTT4=
EXTT5=
EXTT6=
EXTT7=
EXTT8=
EXTT9=
EXTT10=
EXTT11=
PLAYORDER=
